<svg width="27" height="26" viewBox="0 0 27 26" fill="none" xmlns="http://www.w3.org/2000/svg">
<path d="M19.7575 2.17578C17.3906 2.17578 15.0238 3.14875 13.602 6.07559C12.1803 3.14875 9.81342 2.17578 7.44653 2.17578C4.1305 2.17578 1.29103 4.12569 1.29103 8.60927C1.28962 9.65526 1.41227 10.6977 1.65639 11.7148C3.58246 19.7448 12.5377 23.6208 13.602 23.6208C14.6465 23.6208 23.3317 19.8719 25.4484 12.104C25.7594 10.9652 25.9157 9.78976 25.913 8.60927C25.913 4.12569 23.0736 2.17578 19.7575 2.17578Z" fill="#E63B47"/>
<path d="M10.0283 11.3098H17.1767C18.9612 11.3097 20.703 10.7633 22.1679 9.74415C23.6328 8.72496 24.7506 7.28178 25.371 5.60857C24.3941 3.24446 22.2079 2.17578 19.758 2.17578C17.3911 2.17578 15.0242 3.14875 13.6025 6.07559C12.1808 3.14875 9.8139 2.17578 7.44701 2.17578C4.99712 2.17578 2.81092 3.24446 1.83398 5.60857C2.45446 7.28178 3.57226 8.72496 5.03714 9.74415C6.50203 10.7633 8.24379 11.3097 10.0283 11.3098Z" fill="#FF505B"/>
<path d="M17.6966 3.94858C17.4186 4.10227 17.1387 4.33419 17.1804 4.60861C17.2466 4.8104 17.3891 4.97829 17.5775 5.07643C17.9143 5.30716 18.2744 5.51327 18.6358 5.71739C19.3272 6.10896 20.0238 6.49537 20.7442 6.84921C21.1962 7.09932 21.6909 7.26295 22.2028 7.33172C22.3205 7.34442 22.4394 7.34014 22.5559 7.31902C22.7729 7.26579 22.9671 7.14426 23.1099 6.97232C23.3576 6.68249 23.504 6.31979 23.5269 5.93925C23.5498 5.5587 23.448 5.18105 23.237 4.86357C22.2017 3.19165 19.4555 2.97244 17.6966 3.94858Z" fill="#FF99A0"/>
<path d="M6.17984 3.94858C5.90185 4.10227 5.62187 4.33419 5.66357 4.60861C5.72982 4.8104 5.87234 4.97829 6.0607 5.07643C6.39747 5.30716 6.75766 5.51327 7.11905 5.71739C7.81045 6.10896 8.509 6.49537 9.22741 6.84921C9.67941 7.09932 10.1741 7.26295 10.6861 7.33172C10.8037 7.34442 10.9226 7.34014 11.0391 7.31902C11.2569 7.26618 11.4518 7.14462 11.5951 6.97232C11.8428 6.68249 11.9892 6.31979 12.0121 5.93925C12.035 5.5587 11.9332 5.18105 11.7222 4.86357C10.6849 3.19165 7.93872 2.97244 6.17984 3.94858Z" fill="#FF99A0"/>
</svg>
