<svg width="84" height="84" viewBox="0 0 84 84" fill="none" xmlns="http://www.w3.org/2000/svg">
<rect width="84" height="84" rx="26" fill="url(#paint0_linear_236_26279)"/>
<path d="M34.6206 42.2556C34.6206 38.0335 38.0444 34.6099 42.2691 34.6099C46.4938 34.6099 49.9194 38.0335 49.9194 42.2556C49.9194 46.4778 46.4938 49.9014 42.2691 49.9014C38.0444 49.9014 34.6206 46.4778 34.6206 42.2556ZM30.485 42.2556C30.485 48.7601 35.7607 54.0327 42.2691 54.0327C48.7775 54.0327 54.0532 48.7601 54.0532 42.2556C54.0532 35.7512 48.7775 30.4786 42.2691 30.4786C35.7607 30.4786 30.485 35.7512 30.485 42.2556ZM51.7658 30.0117C51.7656 30.556 51.9269 31.0882 52.2293 31.5409C52.5317 31.9936 52.9617 32.3466 53.4648 32.5551C53.9679 32.7636 54.5216 32.8183 55.0559 32.7123C55.5901 32.6063 56.0809 32.3444 56.4662 31.9597C56.8515 31.5749 57.114 31.0846 57.2205 30.5508C57.3269 30.0169 57.2726 29.4635 57.0644 28.9605C56.8561 28.4576 56.5033 28.0276 56.0506 27.725C55.5978 27.4224 55.0655 27.2607 54.5208 27.2605H54.5197C53.7896 27.2609 53.0895 27.5508 52.5732 28.0666C52.0568 28.5825 51.7664 29.282 51.7658 30.0117ZM32.9977 60.9244C30.7602 60.8226 29.5441 60.4501 28.7359 60.1355C27.6645 59.7186 26.9 59.2221 26.0962 58.4199C25.2925 57.6177 24.7949 56.8544 24.3796 55.7836C24.0646 54.9763 23.6919 53.7606 23.5902 51.5244C23.4789 49.1069 23.4567 48.3807 23.4567 42.2558C23.4567 36.131 23.4808 35.4068 23.5902 32.9872C23.6921 30.7511 24.0675 29.5377 24.3796 28.728C24.7968 27.6572 25.2936 26.8932 26.0962 26.0899C26.8989 25.2866 27.6626 24.7894 28.7359 24.3743C29.5437 24.0595 30.7602 23.687 32.9977 23.5854C35.4167 23.4742 36.1433 23.452 42.2691 23.452C48.3949 23.452 49.1222 23.476 51.5433 23.5854C53.7807 23.6872 54.9948 24.0624 55.805 24.3743C56.8765 24.7894 57.641 25.2877 58.4447 26.0899C59.2485 26.8921 59.7442 27.6572 60.1613 28.728C60.4764 29.5353 60.8491 30.7511 60.9508 32.9872C61.062 35.4068 61.0842 36.131 61.0842 42.2558C61.0842 48.3807 61.062 49.1049 60.9508 51.5244C60.8489 53.7606 60.4743 54.9759 60.1613 55.7836C59.7442 56.8544 59.2474 57.6185 58.4447 58.4199C57.6421 59.2214 56.8765 59.7186 55.805 60.1355C54.9972 60.4503 53.7807 60.8228 51.5433 60.9244C49.1243 61.0356 48.3976 61.0578 42.2691 61.0578C36.1406 61.0578 35.4159 61.0356 32.9977 60.9244ZM32.8076 19.4592C30.3646 19.5704 28.6952 19.9575 27.2373 20.5245C25.7274 21.11 24.4492 21.8955 23.172 23.17C21.8947 24.4444 21.1108 25.7239 20.5249 27.2328C19.9576 28.6908 19.5702 30.3583 19.459 32.7999C19.3459 35.2453 19.32 36.0271 19.32 42.2556C19.32 48.4841 19.3459 49.266 19.459 51.7114C19.5702 54.1532 19.9576 55.8205 20.5249 57.2785C21.1108 58.7865 21.8949 60.0674 23.172 61.3413C24.449 62.6152 25.7274 63.3996 27.2373 63.9868C28.6979 64.5537 30.3646 64.9409 32.8076 65.0521C35.2559 65.1633 36.0369 65.191 42.2691 65.191C48.5013 65.191 49.2836 65.1651 51.7306 65.0521C54.1738 64.9409 55.8421 64.5537 57.3009 63.9868C58.8099 63.3996 60.089 62.6158 61.3662 61.3413C62.6435 60.0668 63.4258 58.7865 64.0133 57.2785C64.5806 55.8205 64.9698 54.153 65.0792 51.7114C65.1905 49.2641 65.2164 48.4841 65.2164 42.2556C65.2164 36.0271 65.1905 35.2453 65.0792 32.7999C64.968 30.3581 64.5806 28.6899 64.0133 27.2328C63.4258 25.7248 62.6415 24.4465 61.3662 23.17C60.091 21.8935 58.8099 21.11 57.3028 20.5245C55.8421 19.9575 54.1736 19.5686 51.7324 19.4592C49.2855 19.348 48.5032 19.3203 42.2709 19.3203C36.0387 19.3203 35.2559 19.3462 32.8076 19.4592Z" fill="white"/>
<path d="M34.6206 42.2556C34.6206 38.0335 38.0444 34.6099 42.2691 34.6099C46.4938 34.6099 49.9194 38.0335 49.9194 42.2556C49.9194 46.4778 46.4938 49.9014 42.2691 49.9014C38.0444 49.9014 34.6206 46.4778 34.6206 42.2556ZM30.485 42.2556C30.485 48.7601 35.7607 54.0327 42.2691 54.0327C48.7775 54.0327 54.0532 48.7601 54.0532 42.2556C54.0532 35.7512 48.7775 30.4786 42.2691 30.4786C35.7607 30.4786 30.485 35.7512 30.485 42.2556ZM51.7658 30.0117C51.7656 30.556 51.9269 31.0882 52.2293 31.5409C52.5317 31.9936 52.9617 32.3466 53.4648 32.5551C53.9679 32.7636 54.5216 32.8183 55.0559 32.7123C55.5901 32.6063 56.0809 32.3444 56.4662 31.9597C56.8515 31.5749 57.114 31.0846 57.2205 30.5508C57.3269 30.0169 57.2726 29.4635 57.0644 28.9605C56.8561 28.4576 56.5033 28.0276 56.0506 27.725C55.5978 27.4224 55.0655 27.2607 54.5208 27.2605H54.5197C53.7896 27.2609 53.0895 27.5508 52.5732 28.0666C52.0568 28.5825 51.7664 29.282 51.7658 30.0117ZM32.9977 60.9244C30.7602 60.8226 29.5441 60.4501 28.7359 60.1355C27.6645 59.7186 26.9 59.2221 26.0962 58.4199C25.2925 57.6177 24.7949 56.8544 24.3796 55.7836C24.0646 54.9763 23.6919 53.7606 23.5902 51.5244C23.4789 49.1069 23.4567 48.3807 23.4567 42.2558C23.4567 36.131 23.4808 35.4068 23.5902 32.9872C23.6921 30.7511 24.0675 29.5377 24.3796 28.728C24.7968 27.6572 25.2936 26.8932 26.0962 26.0899C26.8989 25.2866 27.6626 24.7894 28.7359 24.3743C29.5437 24.0595 30.7602 23.687 32.9977 23.5854C35.4167 23.4742 36.1433 23.452 42.2691 23.452C48.3949 23.452 49.1222 23.476 51.5433 23.5854C53.7807 23.6872 54.9948 24.0624 55.805 24.3743C56.8765 24.7894 57.641 25.2877 58.4447 26.0899C59.2485 26.8921 59.7442 27.6572 60.1613 28.728C60.4764 29.5353 60.8491 30.7511 60.9508 32.9872C61.062 35.4068 61.0842 36.131 61.0842 42.2558C61.0842 48.3807 61.062 49.1049 60.9508 51.5244C60.8489 53.7606 60.4743 54.9759 60.1613 55.7836C59.7442 56.8544 59.2474 57.6185 58.4447 58.4199C57.6421 59.2214 56.8765 59.7186 55.805 60.1355C54.9972 60.4503 53.7807 60.8228 51.5433 60.9244C49.1243 61.0356 48.3976 61.0578 42.2691 61.0578C36.1406 61.0578 35.4159 61.0356 32.9977 60.9244ZM32.8076 19.4592C30.3646 19.5704 28.6952 19.9575 27.2373 20.5245C25.7274 21.11 24.4492 21.8955 23.172 23.17C21.8947 24.4444 21.1108 25.7239 20.5249 27.2328C19.9576 28.6908 19.5702 30.3583 19.459 32.7999C19.3459 35.2453 19.32 36.0271 19.32 42.2556C19.32 48.4841 19.3459 49.266 19.459 51.7114C19.5702 54.1532 19.9576 55.8205 20.5249 57.2785C21.1108 58.7865 21.8949 60.0674 23.172 61.3413C24.449 62.6152 25.7274 63.3996 27.2373 63.9868C28.6979 64.5537 30.3646 64.9409 32.8076 65.0521C35.2559 65.1633 36.0369 65.191 42.2691 65.191C48.5013 65.191 49.2836 65.1651 51.7306 65.0521C54.1738 64.9409 55.8421 64.5537 57.3009 63.9868C58.8099 63.3996 60.089 62.6158 61.3662 61.3413C62.6435 60.0668 63.4258 58.7865 64.0133 57.2785C64.5806 55.8205 64.9698 54.153 65.0792 51.7114C65.1905 49.2641 65.2164 48.4841 65.2164 42.2556C65.2164 36.0271 65.1905 35.2453 65.0792 32.7999C64.968 30.3581 64.5806 28.6899 64.0133 27.2328C63.4258 25.7248 62.6415 24.4465 61.3662 23.17C60.091 21.8935 58.8099 21.11 57.3028 20.5245C55.8421 19.9575 54.1736 19.5686 51.7324 19.4592C49.2855 19.348 48.5032 19.3203 42.2709 19.3203C36.0387 19.3203 35.2559 19.3462 32.8076 19.4592Z" fill="white"/>
<defs>
<linearGradient id="paint0_linear_236_26279" x1="82.3855" y1="84" x2="-1.61448" y2="-2.26104e-06" gradientUnits="userSpaceOnUse">
<stop stop-color="#FBE18A"/>
<stop offset="0.21" stop-color="#FCBB45"/>
<stop offset="0.38" stop-color="#F75274"/>
<stop offset="0.52" stop-color="#D53692"/>
<stop offset="0.74" stop-color="#8F39CE"/>
<stop offset="1" stop-color="#5B4FE9"/>
</linearGradient>
</defs>
</svg>
