<svg width="23" height="24" viewBox="0 0 23 24" fill="none" xmlns="http://www.w3.org/2000/svg">
<path d="M18.1587 14.706C17.8674 14.9989 17.7335 15.4224 17.7999 15.8377L18.8 21.5777C18.8844 22.0642 18.6864 22.5565 18.2937 22.8377C17.909 23.1294 17.3971 23.1644 16.9775 22.931L11.9949 20.236C11.8216 20.1404 11.6292 20.089 11.4324 20.0832H11.1275C11.0217 20.0995 10.9182 20.1345 10.8237 20.1882L5.83999 22.896C5.59361 23.0244 5.31461 23.0699 5.04124 23.0244C4.37524 22.8937 3.93086 22.2357 4.03999 21.5415L5.04124 15.8015C5.10761 15.3827 4.97374 14.9569 4.68236 14.6594L0.619985 10.576C0.280235 10.2342 0.16211 9.72085 0.31736 9.25768C0.46811 8.79568 0.85286 8.45852 1.31749 8.38268L6.90874 7.54152C7.33399 7.49602 7.70749 7.22768 7.89874 6.83102L10.3625 1.59268C10.421 1.47602 10.4964 1.36868 10.5875 1.27768L10.6887 1.19602C10.7416 1.13535 10.8024 1.08518 10.8699 1.04435L10.9925 0.997682L11.1837 0.916016H11.6574C12.0804 0.961516 12.4527 1.22402 12.6474 1.61602L15.1437 6.83102C15.3237 7.21252 15.6736 7.47735 16.0775 7.54152L21.6687 8.38268C22.1412 8.45268 22.5361 8.79102 22.6925 9.25768C22.8399 9.72552 22.7127 10.2389 22.3662 10.576L18.1587 14.706Z" fill="#FFBB0E"/>
</svg>
