<svg width="84" height="84" viewBox="0 0 84 84" fill="none" xmlns="http://www.w3.org/2000/svg">
<rect width="84" height="84" rx="26" fill="#34AADF"/>
<path fill-rule="evenodd" clip-rule="evenodd" d="M65.2051 42.2628C65.2051 54.9336 54.9333 65.2053 42.2626 65.2053C29.5918 65.2053 19.3201 54.9336 19.3201 42.2628C19.3201 29.592 29.5918 19.3203 42.2626 19.3203C54.9333 19.3203 65.2051 29.592 65.2051 42.2628ZM44.4611 35.223C40.5197 36.9255 29.1551 41.7603 29.1551 41.7603C26.4618 42.8499 28.0383 43.8713 28.0383 43.8713C28.0383 43.8713 30.3375 44.6886 32.3083 45.3013C34.279 45.9142 35.3301 45.2333 35.3301 45.2333C35.3301 45.2333 39.9285 42.1008 44.5925 38.764C47.877 36.4488 47.0888 38.3555 46.3004 39.1727C44.5925 40.9432 41.7678 43.7352 39.4029 45.9824C38.3519 46.9358 38.8774 47.7529 39.3372 48.1615C40.6746 49.3345 43.8245 51.468 45.2545 52.4366C45.6508 52.705 45.915 52.8839 45.972 52.9283C46.3004 53.2007 48.1398 54.4264 49.2566 54.154C50.3733 53.8817 50.5047 52.3154 50.5047 52.3154C50.5047 52.3154 51.3587 46.7314 52.147 41.6241C52.293 40.6214 52.439 39.6396 52.5751 38.7242C52.929 36.3448 53.2162 34.4133 53.2637 33.7248C53.4608 31.4096 51.0959 32.3629 51.0959 32.3629C51.0959 32.3629 45.972 34.5421 44.4611 35.223Z" fill="white"/>
</svg>
