<svg width="134" height="134" viewBox="0 0 134 134" fill="none" xmlns="http://www.w3.org/2000/svg">
<mask id="mask0_236_26051" style="mask-type:alpha" maskUnits="userSpaceOnUse" x="0" y="0" width="134" height="134">
<circle cx="67" cy="67" r="61" fill="#7BBDFF" stroke="#050505" stroke-width="12"/>
</mask>
<g mask="url(#mask0_236_26051)">
<g clip-path="url(#clip0_236_26051)">
<path d="M86.0395 127.83C80.9617 120.777 76.9887 107.142 76.5185 100.325L52.3632 89.9219L42.3132 127.83H86.0395Z" fill="#F9C9B6" stroke="black" stroke-width="1.41053"/>
<mask id="mask1_236_26051" style="mask-type:alpha" maskUnits="userSpaceOnUse" x="42" y="89" width="45" height="43">
<path d="M86.0395 131.356C80.9617 124.304 76.9887 107.142 76.5185 100.325L52.3632 89.9219L42.3132 131.356H86.0395Z" fill="#AC6651"/>
</mask>
<g mask="url(#mask1_236_26051)">
<g style="mix-blend-mode:multiply">
<ellipse cx="75.4608" cy="89.2159" rx="20.8053" ry="19.0421" fill="black"/>
</g>
</g>
<mask id="path-5-inside-1_236_26051" fill="white">
<path fill-rule="evenodd" clip-rule="evenodd" d="M96.5744 68.364C96.5662 68.3292 96.5579 68.2943 96.5495 68.2595C96.5412 68.2246 96.5328 68.1898 96.5243 68.155L90.7379 44.004C90.7323 43.98 90.7265 43.956 90.7208 43.932C90.715 43.9081 90.7093 43.8841 90.7035 43.8601L90.6779 43.7533L90.6774 43.7534C87.0742 29.1387 72.3424 20.1524 57.682 23.6649C43.0216 27.1774 33.9617 41.864 37.3726 56.5248L37.372 56.5249L43.3636 81.5328L43.3685 81.5316C47.1072 95.9561 61.73 104.785 76.2824 101.298C90.8348 97.8116 99.869 83.3148 96.6651 68.7622L96.6695 68.7612L96.5744 68.364Z"/>
</mask>
<path fill-rule="evenodd" clip-rule="evenodd" d="M96.5744 68.364C96.5662 68.3292 96.5579 68.2943 96.5495 68.2595C96.5412 68.2246 96.5328 68.1898 96.5243 68.155L90.7379 44.004C90.7323 43.98 90.7265 43.956 90.7208 43.932C90.715 43.9081 90.7093 43.8841 90.7035 43.8601L90.6779 43.7533L90.6774 43.7534C87.0742 29.1387 72.3424 20.1524 57.682 23.6649C43.0216 27.1774 33.9617 41.864 37.3726 56.5248L37.372 56.5249L43.3636 81.5328L43.3685 81.5316C47.1072 95.9561 61.73 104.785 76.2824 101.298C90.8348 97.8116 99.869 83.3148 96.6651 68.7622L96.6695 68.7612L96.5744 68.364Z" fill="#F9C9B6"/>
<path d="M96.5744 68.364L95.2014 68.6873L95.2027 68.6927L96.5744 68.364ZM96.5495 68.2595L95.1778 68.5881L95.1778 68.5881L96.5495 68.2595ZM96.5243 68.155L95.1526 68.4837L95.1539 68.489L96.5243 68.155ZM90.7379 44.004L89.3653 44.3289L89.3662 44.3326L90.7379 44.004ZM90.7208 43.932L89.3491 44.2607L89.3491 44.2607L90.7208 43.932ZM90.7035 43.8601L89.3318 44.1888L89.3326 44.1923L90.7035 43.8601ZM90.6779 43.7533L92.0496 43.4247L91.7207 42.052L90.3483 42.3818L90.6779 43.7533ZM90.6774 43.7534L89.3079 44.0911L89.6435 45.4525L91.007 45.1249L90.6774 43.7534ZM57.682 23.6649L58.0107 25.0366L57.682 23.6649ZM37.3726 56.5248L37.7021 57.8963L39.0638 57.5692L38.7465 56.2051L37.3726 56.5248ZM37.372 56.5249L37.0425 55.1534L35.6718 55.4826L36.0003 56.8536L37.372 56.5249ZM43.3636 81.5328L41.9919 81.8615L42.3206 83.2331L43.6922 82.9045L43.3636 81.5328ZM43.3685 81.5316L44.7339 81.1777L44.3864 79.8374L43.0399 80.1599L43.3685 81.5316ZM96.6651 68.7622L96.3364 67.3905L94.9899 67.7132L95.2876 69.0655L96.6651 68.7622ZM96.6695 68.7612L96.9983 70.1329L98.3699 69.8041L98.0412 68.4325L96.6695 68.7612ZM97.9473 68.0407C97.9387 68.004 97.93 67.9674 97.9213 67.9309L95.1778 68.5881C95.1858 68.6212 95.1936 68.6543 95.2014 68.6873L97.9473 68.0407ZM97.9213 67.9309C97.9125 67.8942 97.9036 67.8576 97.8947 67.821L95.1539 68.489C95.1619 68.522 95.1699 68.555 95.1778 68.5881L97.9213 67.9309ZM89.3662 44.3326L95.1526 68.4837L97.896 67.8264L92.1096 43.6753L89.3662 44.3326ZM92.1105 43.679C92.1045 43.6538 92.0985 43.6285 92.0925 43.6033L89.3491 44.2607C89.3545 44.2835 89.36 44.3062 89.3654 44.3289L92.1105 43.679ZM92.0925 43.6033C92.0865 43.5781 92.0804 43.553 92.0743 43.528L89.3326 44.1923C89.3382 44.2152 89.3437 44.238 89.3491 44.2607L92.0925 43.6033ZM89.3062 44.0819L89.3318 44.1888L92.0752 43.5315L92.0496 43.4247L89.3062 44.0819ZM91.007 45.1249L91.0075 45.1248L90.3483 42.3818L90.3478 42.3819L91.007 45.1249ZM92.0469 43.4158C88.2582 28.0487 72.7683 18.5999 57.3534 22.2932L58.0107 25.0366C71.9165 21.7049 85.8901 30.2287 89.3079 44.0911L92.0469 43.4158ZM57.3534 22.2932C41.9384 25.9865 32.4123 41.4289 35.9988 56.8444L38.7465 56.2051C35.5111 42.2991 44.1048 28.3683 58.0107 25.0366L57.3534 22.2932ZM37.7014 57.8964L37.7021 57.8963L37.0432 55.1532L37.0425 55.1534L37.7014 57.8964ZM44.7353 81.2042L38.7437 56.1963L36.0003 56.8536L41.9919 81.8615L44.7353 81.2042ZM43.0399 80.1599L43.035 80.1611L43.6922 82.9045L43.697 82.9034L43.0399 80.1599ZM42.003 81.8856C45.9344 97.0529 61.3095 106.336 76.6111 102.67L75.9538 99.9265C62.1504 103.234 48.2801 94.8593 44.7339 81.1777L42.003 81.8856ZM76.6111 102.67C91.9126 99.0038 101.412 83.761 98.0427 68.459L95.2876 69.0655C98.3265 82.8686 89.7571 96.6194 75.9538 99.9265L76.6111 102.67ZM96.3408 67.3895L96.3364 67.3905L96.9938 70.1339L96.9983 70.1329L96.3408 67.3895ZM95.2027 68.6927L95.2978 69.0898L98.0412 68.4325L97.9461 68.0353L95.2027 68.6927Z" fill="black" mask="url(#path-5-inside-1_236_26051)"/>
</g>
<path d="M86.0131 76.2845C85.953 75.5555 85.2076 75.1495 84.5759 75.3984C83.0847 75.986 78.1516 77.8547 74.6732 78.3332C70.8568 78.8582 65.0773 78.2206 63.4044 78.0129C62.724 77.9284 62.1176 78.5131 62.235 79.2237C62.4648 80.614 62.9381 81.9542 63.6344 83.1823C64.411 84.5519 65.4497 85.7552 66.6913 86.7234C67.9329 87.6916 69.3531 88.4058 70.8707 88.8251C72.3883 89.2445 73.9736 89.3608 75.5362 89.1675C77.0988 88.9742 78.6079 88.475 79.9776 87.6984C81.3472 86.9218 82.5505 85.8831 83.5187 84.6415C84.4869 83.3999 85.2011 81.9798 85.6204 80.4622C85.9962 79.1023 86.1287 77.688 86.0131 76.2845Z" fill="black" stroke="black" stroke-width="1.41053"/>
<mask id="mask2_236_26051" style="mask-type:alpha" maskUnits="userSpaceOnUse" x="62" y="75" width="24" height="14">
<path d="M85.2629 75.8832C85.4448 77.3539 85.3353 78.846 84.9406 80.2743C84.546 81.7026 83.8738 83.0392 82.9625 84.2078C82.0513 85.3764 80.9188 86.354 79.6297 87.0849C78.3407 87.8158 76.9202 88.2856 75.4496 88.4676C73.9789 88.6495 72.4869 88.54 71.0585 88.1454C69.6302 87.7507 68.2936 87.0785 67.125 86.1672C65.9564 85.256 64.9788 84.1235 64.2479 82.8344C63.517 81.5454 63.0472 80.1249 62.8652 78.6543L85.2629 75.8832Z" fill="#171921"/>
</mask>
<g mask="url(#mask2_236_26051)">
<circle cx="75.6463" cy="90.0308" r="7.58158" transform="rotate(-7.05286 75.6463 90.0308)" fill="#FC909F"/>
</g>
<path d="M77.2271 46.6246C79.2253 45.6842 83.9271 44.8262 86.7481 48.9167" stroke="black" stroke-width="1.41053" stroke-linecap="round"/>
<path d="M50.6313 55.5493C51.3615 53.4651 54.0455 49.5105 58.9403 50.3661" stroke="black" stroke-width="1.41053" stroke-linecap="round"/>
<path d="M94.6044 28.7925C91.6698 42.8615 56.9863 44.8372 49.9965 44.8372C31.6518 46.9272 40.457 68.9453 43.8255 79.9241C41.1807 80.2767 41.5334 83.4504 31.3071 58.2372C23.126 38.0667 46.296 25.773 63.51 21.5999C80.724 17.4268 87.3127 11.5508 87.3127 11.5508C94.6044 14.5475 96.346 20.4429 94.6044 28.7925Z" fill="black"/>
<path d="M92.8259 54.7282L87.2478 35.8836L90.7875 32.6597C94.5803 45.7381 94.7537 53.3324 92.8259 54.7282Z" fill="black"/>
<path d="M49.0153 70.8799C47.0406 61.2883 42.0802 63.0045 38.789 63.4747L35.2627 47.9588L49.574 44.9634C49.8392 44.8788 50.1229 44.8188 50.4259 44.7852L49.574 44.9634C43.1734 47.0064 47.5895 63.4025 52.8943 70.1746L49.0153 70.8799Z" fill="black"/>
<path d="M29.6167 34.6851C32.7358 33.1145 36.4196 34.0236 37.8715 34.6745L33.7208 39.9218C34.7911 38.2092 31.4307 35.7171 29.6167 34.6851Z" fill="black"/>
<path d="M24.3311 40.7296C28.4216 38.3317 32.3828 39.1428 33.8521 39.848L32.2653 45.314C31.8421 42.3519 26.7995 41.0235 24.3311 40.7296Z" fill="black"/>
<path fill-rule="evenodd" clip-rule="evenodd" d="M55.5358 60.5666C55.5761 60.8533 55.9405 60.9172 56.143 60.7104C57.0123 59.8232 58.3487 59.1714 59.9001 58.9871C60.8151 58.8784 61.6955 58.9452 62.4798 59.1536C62.7457 59.2242 63.007 58.9997 62.9142 58.7408C62.3269 57.1026 60.6694 56.0259 58.8678 56.24C56.7727 56.4889 55.2762 58.3891 55.5251 60.4841C55.5284 60.5117 55.532 60.5392 55.5358 60.5666Z" fill="black"/>
<path fill-rule="evenodd" clip-rule="evenodd" d="M78.1385 57.0408C78.1783 57.3275 78.5427 57.3915 78.7455 57.185C79.6068 56.3085 80.9289 55.6647 82.4631 55.4824C83.3673 55.3749 84.2375 55.4406 85.0131 55.6458C85.279 55.7161 85.5403 55.4916 85.447 55.2328C84.8634 53.6132 83.2231 52.5494 81.4404 52.7612C79.3649 53.0078 77.8822 54.8903 78.1289 56.9659C78.1318 56.9909 78.1351 57.0159 78.1385 57.0408Z" fill="black"/>
<path d="M70.6259 63.0955C72.4668 62.3951 75.6769 62.6066 75.4793 66.1679C75.3036 69.3331 72.0563 69.9616 71.0217 69.2235" stroke="black" stroke-width="1.41053"/>
<path d="M43.9037 63.5356C43.0821 63.2651 42.1951 63.1211 41.2872 63.1211C37.5869 63.1211 34.5872 65.4132 34.9398 69.6448C35.3071 74.0527 37.9395 75.6395 41.6398 75.6395C42.0516 75.6395 42.4546 75.6034 42.8458 75.5341C43.2727 75.4586 43.6855 75.3436 44.08 75.1933" stroke="black" stroke-width="2.82105"/>
<path d="M44.2564 75.1233C43.4525 75.4557 42.5682 75.6395 41.6398 75.6395C37.9395 75.6395 35.3071 74.0527 34.9398 69.6448C34.5872 65.4132 37.5869 63.1211 41.2872 63.1211C42.3936 63.1211 43.4688 63.3349 44.4327 63.731L44.2564 75.1233Z" fill="#F9C9B6"/>
<path d="M42.8457 66.1172C41.4352 65.4707 38.332 65.1299 37.2036 68.9383" stroke="black" stroke-width="1.41053"/>
<path d="M39.1431 66.2949C39.9071 66.9414 41.3646 68.9397 41.0825 71.7607" stroke="black" stroke-width="1.41053"/>
<path d="M66.9182 126.8L67.3516 126.243L66.9182 126.8L67.5254 127.273L67.9435 126.627L67.9436 126.627L67.9443 126.626L67.9476 126.621L67.962 126.598C67.9751 126.579 67.995 126.548 68.0215 126.509C68.0746 126.429 68.1539 126.312 68.2577 126.162C68.4653 125.862 68.7702 125.433 69.1564 124.92C69.9299 123.892 71.0246 122.534 72.3137 121.207C73.6061 119.876 75.0734 118.597 76.5897 117.707C78.1118 116.814 79.615 116.352 81.01 116.54C95.9752 118.558 106.988 125.186 114.137 135.059H17.7626C23.5104 124.712 31.6857 118.127 44.94 115.105C45.5048 114.976 46.2728 115.015 47.233 115.238C48.1833 115.459 49.2667 115.848 50.4352 116.361C52.772 117.388 55.3806 118.886 57.832 120.438C60.2796 121.987 62.5524 123.578 64.2145 124.783C65.0451 125.386 65.7222 125.891 66.1912 126.245C66.4256 126.422 66.608 126.561 66.7315 126.656C66.7932 126.703 66.8402 126.739 66.8716 126.764L66.9069 126.791L66.9156 126.798L66.9177 126.799L66.9182 126.8Z" fill="#6BD9E9" stroke="black" stroke-width="1.41053"/>
<path d="M40.7676 116.046L42.5896 109.264C42.6633 108.989 43.0187 108.912 43.2105 109.122C48.4517 114.857 55.0658 114.632 57.2611 114.369C57.5591 114.333 57.7924 114.659 57.6525 114.925L53.0129 123.724C52.9418 123.859 52.7962 123.933 52.647 123.902C51.2546 123.612 44.3168 121.916 40.8085 116.321C40.7572 116.24 40.7425 116.139 40.7676 116.046Z" fill="#D2EFF3" stroke="black" stroke-width="1.41053"/>
<path d="M86.815 116.009L82.7313 109.139C82.5927 108.906 82.2511 108.91 82.1033 109.137C80.0803 112.253 76.5911 113.689 75.371 114.113C75.1515 114.189 75.0511 114.45 75.1694 114.65L79.9309 122.695C80.0019 122.815 80.1362 122.88 80.2703 122.842C81.0231 122.627 83.6062 121.547 86.8104 116.376C86.8793 116.265 86.8818 116.122 86.815 116.009Z" fill="#D2EFF3" stroke="black" stroke-width="1.41053"/>
<path d="M60.8279 122.187L57.6542 114.605L55.1858 119.895L60.8279 122.187Z" fill="black" stroke="black" stroke-width="1.41053" stroke-linejoin="round"/>
<path d="M71.9358 121.835L75.1095 114.254L77.5779 119.543L71.9358 121.835Z" fill="black" stroke="black" stroke-width="1.41053" stroke-linejoin="round"/>
<path d="M47.0753 107.906L42.8438 108.964L46.3701 111.256L47.0753 107.906Z" fill="black" stroke="black" stroke-width="1.41053" stroke-linejoin="round"/>
<path d="M78.6359 107.906L82.5149 108.964L80.0465 111.256L78.6359 107.906Z" fill="black" stroke="black" stroke-width="1.41053" stroke-linejoin="round"/>
</g>
<defs>
<clipPath id="clip0_236_26051">
<rect width="70.5263" height="112.842" fill="white" transform="translate(31.7344 15.1641)"/>
</clipPath>
</defs>
</svg>
