<svg width="84" height="84" viewBox="0 0 84 84" fill="none" xmlns="http://www.w3.org/2000/svg">
<rect width="84" height="84" rx="26" fill="#00D95F"/>
<path d="M21.0002 61.3203L24.0136 50.1257C21.5833 45.7648 20.8112 40.6761 21.8389 35.7932C22.8666 30.9103 25.6252 26.5609 29.6084 23.543C33.5917 20.5252 38.5324 19.0413 43.524 19.3637C48.5155 19.6861 53.2231 21.7931 56.7829 25.2982C60.3427 28.8033 62.5159 33.4712 62.9037 38.4455C63.2914 43.4198 61.8678 48.3668 58.8941 52.3786C55.9203 56.3904 51.5958 59.198 46.7142 60.2862C41.8326 61.3744 36.7213 60.6702 32.3182 58.3027L21.0002 61.3203ZM32.8639 54.1136L33.5639 54.5278C36.7531 56.4133 40.4781 57.1936 44.1584 56.747C47.8386 56.3004 51.2673 54.6521 53.9103 52.0588C56.5533 49.4655 58.262 46.0731 58.7701 42.41C59.2783 38.747 58.5574 35.0192 56.7197 31.8075C54.882 28.5958 52.0309 26.0807 48.6105 24.654C45.1902 23.2274 41.3927 22.9694 37.81 23.9203C34.2273 24.8711 31.0605 26.9774 28.8033 29.9108C26.546 32.8443 25.3249 36.4402 25.3304 40.1381C25.3274 43.2043 26.1776 46.2112 27.7862 48.824L28.2252 49.5459L26.5405 55.794L32.8639 54.1136Z" fill="white"/>
<path fill-rule="evenodd" clip-rule="evenodd" d="M49.8526 43.0126C49.4422 42.6825 48.9618 42.4502 48.4478 42.3333C47.9338 42.2164 47.3999 42.218 46.8866 42.3381C46.1155 42.6576 45.6172 43.8646 45.1189 44.4682C45.0138 44.6128 44.8594 44.7143 44.6847 44.7535C44.51 44.7927 44.3269 44.767 44.1698 44.6812C41.3466 43.5782 38.9802 41.5556 37.4549 38.9419C37.3248 38.7788 37.2632 38.5717 37.2831 38.3642C37.3031 38.1567 37.4029 37.965 37.5617 37.8295C38.1174 37.2807 38.5255 36.601 38.7481 35.8533C38.7975 35.0285 38.608 34.2069 38.2023 33.4866C37.8887 32.4766 37.2917 31.5774 36.4821 30.895C36.0645 30.7077 35.6014 30.6448 35.1488 30.7141C34.6962 30.7834 34.2734 30.9819 33.9314 31.2855C33.3375 31.7965 32.8662 32.4339 32.5521 33.1507C32.2379 33.8675 32.089 34.6455 32.1162 35.4273C32.118 35.8663 32.1738 36.3035 32.2823 36.729C32.5578 37.7513 32.9814 38.728 33.5398 39.6282C33.9427 40.3178 34.3823 40.9854 34.8567 41.6281C36.3985 43.7392 38.3365 45.5316 40.5632 46.9059C41.6806 47.6042 42.8748 48.172 44.1224 48.5981C45.4183 49.184 46.8491 49.4089 48.2628 49.2489C49.0683 49.1273 49.8315 48.8101 50.4852 48.3252C51.139 47.8403 51.6632 47.2025 52.0118 46.468C52.2166 46.0244 52.2788 45.5283 52.1897 45.048C51.9762 44.0658 50.6593 43.486 49.8526 43.0126Z" fill="white"/>
</svg>
