<svg width="84" height="84" viewBox="0 0 84 84" fill="none" xmlns="http://www.w3.org/2000/svg">
<rect width="84" height="84" rx="26" fill="#FF3000"/>
<path fill-rule="evenodd" clip-rule="evenodd" d="M60.2873 26.1996C62.3515 26.757 63.9739 28.3836 64.5223 30.4454C65.5201 34.1872 65.5201 41.9992 65.5201 41.9992C65.5201 41.9992 65.5201 49.8112 64.5223 53.553C63.9663 55.6225 62.3439 57.249 60.2873 57.7989C56.555 58.7992 41.5801 58.7992 41.5801 58.7992C41.5801 58.7992 26.6129 58.7992 22.873 57.7989C20.8088 57.2414 19.1864 55.6149 18.638 53.553C17.6401 49.8112 17.6401 41.9992 17.6401 41.9992C17.6401 41.9992 17.6401 34.1872 18.638 30.4454C19.194 28.3759 20.8164 26.7494 22.873 26.1996C26.6129 25.1992 41.5801 25.1992 41.5801 25.1992C41.5801 25.1992 56.555 25.1992 60.2873 26.1996ZM49.2352 41.9992L36.7967 49.2003V34.7981L49.2352 41.9992Z" fill="white"/>
</svg>
